<?xml version="1.0" encoding="utf-8"?>
<!-- Generator: Adobe Illustrator 27.5.0, SVG Export Plug-In . SVG Version: 6.00 Build 0)  -->
<svg version="1.1" id="a" xmlns="http://www.w3.org/2000/svg" xmlns:xlink="http://www.w3.org/1999/xlink" x="0px" y="0px"
	 viewBox="0 0 104.1 36.2" style="enable-background:new 0 0 104.1 36.2;" xml:space="preserve">
<style type="text/css">
	.st0{fill:#D80000;}
</style>
<g>
	<g>
		<g>
			<path class="st0" d="M14.6,18.8c3,0,4.7,0.8,4.7,4v7.4h-3.2V19.9H3.7v10.3H0.6V6.4h9.2c4.2,0,9.3,0.8,9.3,6.4c0,3.6-2.2,5-4.5,5
				V18.8z M3.7,9.1v8.2h5.5c5.2,0,6.6-1.4,6.6-4.1c0-2.7-1.4-4.1-6.6-4.1H3.7z M19,12.8 M19,12.8 M19,12.8"/>
			<path class="st0" d="M21.1,20.6c0-5.8,4.3-10.3,10.2-10.3c5.7,0,10,4,10,9.9v1.3H24.2c0.4,3.7,3.3,6.2,7.2,6.2
				c3.1,0,5.3-1.6,6.5-4.1l2.7,1.4c-1.8,3.5-4.7,5.5-9.2,5.5C25.1,30.6,21.1,26.3,21.1,20.6z M24.3,18.7H38c-0.6-3.5-3-5.6-6.8-5.6
				C27.7,13.1,25.1,15.5,24.3,18.7z"/>
			<path class="st0" d="M42.5,20.5c0-5.8,4.4-10.2,10-10.2c2.7,0,5.6,1.3,7.2,3.6V5.5h3.1v24.7h-3.1v-3.3c-0.8,1.2-1.8,2.1-3.2,2.7
				c-1.3,0.6-2.6,1-4,1C47,30.6,42.5,26.3,42.5,20.5z M59.9,20.5c0-4-3.1-7.3-7.1-7.3c-3.9,0-7.1,3.2-7.1,7.3c0,4,3.1,7.3,7.1,7.3
				C56.8,27.7,59.9,24.5,59.9,20.5z"/>
			<path class="st0" d="M66,21.8V10.7h3.2v11c0,3.8,1.6,6.1,5.3,6.1c3.3,0,5.3-2.6,5.3-6.2V10.7H83v19.5h-3.1v-2.7
				c-1.2,1.9-3.1,3.1-5.9,3.1C68.8,30.6,66,27.4,66,21.8z"/>
			<path class="st0" d="M92,20.3l-7.4-9.6h3.9l5.5,7.3l5.5-7.3h3.8l-7.4,9.6l7.8,10h-3.9l-5.8-7.6l-5.7,7.6h-3.9L92,20.3z"/>
		</g>
	</g>
</g>
</svg>
